<svg xmlns="http://www.w3.org/2000/svg" viewBox="0 0 120 120" width="120" height="120">
      <defs>
        <radialGradient id="bg_joker" cx="50%" cy="50%" r="50%">
          <stop offset="0%" stop-color="#2a083b"/>
          <stop offset="100%" stop-color="#0d0114"/>
        </radialGradient>
      </defs>
      <rect width="120" height="120" rx="20" fill="url(#bg_joker)"/>
      <!-- Wild Acid Green Hair -->
      <path d="M30 45 C25 18, 95 18, 90 45 C96 65, 88 80, 84 84 C80 62, 78 40, 72 34 C64 26, 50 28, 46 36 C42 46, 38 68, 30 45 Z" fill="#65a30d" stroke="#84cc16" stroke-width="1"/>
      <!-- Pale White Face -->
      <path d="M42 42 C42 34, 78 34, 78 42 L78 72 C78 88, 70 96, 60 98 C50 96, 42 88, 42 72 Z" fill="#f4f4f5"/>
      <!-- Dark Smudged Eyes -->
      <ellipse cx="50" cy="54" rx="6" ry="5" fill="#27272a"/>
      <ellipse cx="70" cy="54" rx="6" ry="5" fill="#27272a"/>
      <circle cx="51" cy="54" r="2" fill="#ffffff"/>
      <circle cx="69" cy="54" r="2" fill="#ffffff"/>
      <!-- Manic Glasgow Smile Crimson -->
      <path d="M42 74 Q60 88 78 74" fill="none" stroke="#dc2626" stroke-width="4" stroke-linecap="round"/>
      <path d="M48 76 Q60 80 72 76" fill="none" stroke="#991b1b" stroke-width="2"/>
    </svg>